<svg xmlns="http://www.w3.org/2000/svg" data-name="Layer 1" viewBox="0 0 1061 507.397"><path data-name="Path 765" d="M828.793 76.231h-260.17V70.87H450.652v5.362H189.41a17.6 17.6 0 0 0-17.6 17.6v356.25a17.6 17.6 0 0 0 17.6 17.6h639.383a17.6 17.6 0 0 0 17.6-17.6V93.83a17.6 17.6 0 0 0-17.6-17.598Z" fill="#3f3d56"/><path data-name="Rectangle 125" fill="#e6e6e6" d="M195.406 107.332h627.391v353.913H195.406z"/><path data-name="Rectangle 130" fill="#fff" d="M222.013 126.048h574.391v305.913H222.013z"/><circle data-name="Ellipse 120" cx="508.565" cy="91.246" r="6.435" fill="#6c63ff"/><path data-name="Path 766" d="M864.007 454.81h-61.229v-4.412a.875.875 0 0 0-.875-.875H780.91a.875.875 0 0 0-.875.875v4.412h-13.12v-4.412a.875.875 0 0 0-.875-.875h-20.993a.875.875 0 0 0-.875.875v4.412h-13.12v-4.412a.875.875 0 0 0-.875-.875h-20.993a.875.875 0 0 0-.875.875v4.412h-13.12v-4.412a.875.875 0 0 0-.875-.875h-20.992a.875.875 0 0 0-.875.875v4.412h-13.121v-4.412a.875.875 0 0 0-.875-.875h-20.992a.875.875 0 0 0-.875.875v4.412h-13.121v-4.412a.875.875 0 0 0-.875-.875H601.6a.875.875 0 0 0-.875.875v4.412H587.6v-4.412a.875.875 0 0 0-.875-.875H422.281a.875.875 0 0 0-.875.875v4.412h-13.12v-4.412a.875.875 0 0 0-.875-.875h-20.993a.875.875 0 0 0-.875.875v4.412h-13.12v-4.412a.875.875 0 0 0-.875-.875h-20.992a.875.875 0 0 0-.875.875v4.412H336.56v-4.412a.875.875 0 0 0-.875-.875h-20.992a.875.875 0 0 0-.875.875v4.412H300.7v-4.412a.875.875 0 0 0-.875-.875H278.83a.875.875 0 0 0-.875.875v4.412h-13.12v-4.412a.875.875 0 0 0-.875-.875h-20.993a.875.875 0 0 0-.875.875v4.412h-13.12v-4.412a.875.875 0 0 0-.875-.875H207.1a.875.875 0 0 0-.875.875v4.412h-40.232A20.993 20.993 0 0 0 145 475.803v9.492a20.993 20.993 0 0 0 20.993 20.993h698.014A20.993 20.993 0 0 0 885 485.296v-9.492a20.993 20.993 0 0 0-20.993-20.993Z" fill="#3f3d56"/><path data-name="Rectangle 126" fill="#e6e6e6" d="M382.209 147.504h254v267h-254z"/><path data-name="Rectangle 128" fill="#e6e6e6" d="M0 505.397h1061v2H0z"/><path data-name="Path 776" d="M957.957 435.532c14.376 15.426 15.119 38.1 15.119 38.1s-22.565-2.338-36.941-17.764-15.119-38.1-15.119-38.1 22.565 2.338 36.941 17.764Z" fill="#6c63ff"/><path data-name="Path 777" d="M1003.214 459.611c-15.426 14.376-38.1 15.12-38.1 15.12s2.338-22.566 17.764-36.942 38.1-15.119 38.1-15.119-2.337 22.565-17.764 36.941Z" fill="#6c63ff"/><path data-name="Path 778" d="M999.38 505.396h-56.739a5.8 5.8 0 0 1-5.219-3.265l-12.353-25.393a5.8 5.8 0 0 1 5.219-8.342h81.446a5.8 5.8 0 0 1 5.219 8.342l-12.353 25.394a5.8 5.8 0 0 1-5.219 3.265Z" fill="#e5e5e5"/><path data-name="Path 779" d="M60.957 435.532c14.376 15.426 15.119 38.1 15.119 38.1s-22.565-2.338-36.941-17.764-15.119-38.1-15.119-38.1 22.565 2.338 36.941 17.764Z" fill="#e5e5e5"/><path data-name="Path 780" d="M93.38 505.396H36.641a5.8 5.8 0 0 1-5.219-3.265l-12.353-25.393a5.8 5.8 0 0 1 5.219-8.342h81.446a5.8 5.8 0 0 1 5.219 8.342L98.6 502.132a5.8 5.8 0 0 1-5.219 3.265Z" fill="#e5e5e5"/><circle data-name="Ellipse 127" cx="539.856" cy="189.33" r="33.757" fill="#a0616a"/><path data-name="Path 803" d="m462.186 415.054 21.8-137.237a52.032 52.032 0 0 1 65.979-41.78 51.875 51.875 0 0 1 36.56 59.46l-22.8 122.558Z" fill="#6c63ff"/><path data-name="Path 804" d="M549.176 439.61a13.821 13.821 0 0 0 2.4-21.057l22.535-43.639-25.378 2.708-17.509 41.026a13.9 13.9 0 0 0 17.951 20.962Z" fill="#a0616a"/><path data-name="Path 805" d="M554.002 410.856a6.193 6.193 0 0 1-3.335-1.582l-8.622-7.967a6.205 6.205 0 0 1-1.5-6.946l17.232-40.845-2.445-80.705a19.924 19.924 0 1 1 39.483 5.386l4.18 50.733a63.737 63.737 0 0 1-12.284 43.152l-26.873 36.33a6.19 6.19 0 0 1-4.391 2.478 6.12 6.12 0 0 1-1.445-.034Z" fill="#6c63ff"/><path data-name="Path 806" d="M345.459 170.938a13.821 13.821 0 0 0 18.453 10.421l31.4 37.766 7.4-24.426-30.952-32.119a13.9 13.9 0 0 0-26.3 8.358Z" fill="#a0616a"/><path data-name="Path 807" d="M370.056 186.592a6.194 6.194 0 0 1 2.757-2.454l10.7-4.833a6.205 6.205 0 0 1 6.982 1.327l30.894 31.793 75.272 29.215a19.924 19.924 0 1 1-20.354 34.258l-48.347-15.932a63.737 63.737 0 0 1-34.948-28.137l-22.976-38.91a6.192 6.192 0 0 1-.571-5.01 6.126 6.126 0 0 1 .594-1.316Z" fill="#6c63ff"/><path data-name="Path 808" d="m636.737 502.685-1.374 43.98-25.319 44 21.141-49.03Z" transform="translate(-69.5 -196.301)" opacity=".1" style="isolation:isolate"/><path data-name="Path 696" d="M516.995 172.41c3.482 4.121 9.374 5.283 14.81 5.76 11.039.968 27.091-.6 37.879-3.093.77 7.463-1.329 15.51 3.066 21.648a100.499 100.499 0 0 0 3.571-22.783c.133-3.3.081-6.724-1.262-9.758s-4.272-5.609-7.645-5.636a19.161 19.161 0 0 1 8.547-3.654l-10.68-5.367 2.743-2.816-19.336-1.183 5.6-3.558a121.439 121.439 0 0 0-25.441-.8c-3.94.29-8.06.845-11.252 3.128s-5.037 6.82-3.055 10.172a14.77 14.77 0 0 0-11.256 8.931c-1.423 3.608-1.293 7.616-.854 11.461a81.234 81.234 0 0 0 4.26 18.02" fill="#2f2e41"/><path data-name="Path 138" d="m661.305 87.844-307.598 71.015a5.853 5.853 0 0 1-7.011-4.382L329.08 78.176a5.853 5.853 0 0 1 4.381-7.012L641.06.15a5.853 5.853 0 0 1 7.011 4.38l17.616 76.303a5.853 5.853 0 0 1-4.381 7.011Z" fill="#fff"/><path data-name="Path 138" d="m661.305 87.844-307.598 71.015a5.853 5.853 0 0 1-7.011-4.382L329.08 78.176a5.853 5.853 0 0 1 4.381-7.012L641.06.15a5.853 5.853 0 0 1 7.011 4.38l17.616 76.303a5.853 5.853 0 0 1-4.381 7.011Zm-327.318-14.4a3.512 3.512 0 0 0-2.629 4.207l17.616 76.302a3.511 3.511 0 0 0 4.207 2.629L660.78 85.567a3.511 3.511 0 0 0 2.63-4.207L645.791 5.057a3.511 3.511 0 0 0-4.207-2.63Z" fill="#e6e6e6"/><path data-name="Path 139" d="M440.721 73.207a3.969 3.969 0 1 0 1.772 7.738l.014-.003 182.312-42.09a3.969 3.969 0 0 0-1.786-7.735Z" fill="#e6e6e6"/><path data-name="Path 140" d="M446.078 96.412a3.969 3.969 0 1 0 1.772 7.738l.014-.003 78.45-18.112a3.969 3.969 0 0 0-1.773-7.737l-.013.003Z" fill="#e6e6e6"/><g data-name="Group 45"><circle data-name="Ellipse 18" cx="390.881" cy="100.823" r="23.814" fill="#6c63ff"/><path data-name="Path 395" d="M390.21 114.56a3.689 3.689 0 0 1-2.327-.22l-.046-.02-9.582-4.35a3.716 3.716 0 1 1 3.077-6.765l6.209 2.827 8.71-19.14a3.713 3.713 0 0 1 4.917-1.842l-.052.125.055-.125a3.717 3.717 0 0 1 1.84 4.918l-10.244 22.515a3.715 3.715 0 0 1-2.552 2.076Z" fill="#fff"/></g></svg>